# Blender v2.93.4 OBJ File: 'CGMidtermModels.blend'
# www.blender.org
mtllib CGMidtermLog.mtl
o Cylinder.001
v -10.493834 0.520513 14.004599
v -17.619116 0.520513 14.004599
v -10.493834 0.510511 13.881210
v -17.619116 0.510511 13.881210
v -10.493834 0.480891 13.762563
v -17.619116 0.480891 13.762564
v -10.493834 0.432790 13.653217
v -17.619116 0.432791 13.653218
v -10.493834 0.368058 13.557375
v -17.619116 0.368058 13.557376
v -10.493834 0.289181 13.478720
v -17.619116 0.289182 13.478720
v -10.493834 0.199191 13.420274
v -17.619116 0.199192 13.420274
v -10.493834 0.101547 13.384282
v -17.619116 0.101547 13.384283
v -10.493834 -0.000000 13.372129
v -17.619116 0.000000 13.372129
v -10.493834 -0.101547 13.384282
v -17.619116 -0.101547 13.384283
v -10.493834 -0.199192 13.420274
v -17.619116 -0.199191 13.420274
v -10.493834 -0.289182 13.478720
v -17.619116 -0.289181 13.478720
v -10.493834 -0.368058 13.557375
v -17.619116 -0.368058 13.557376
v -10.493834 -0.432791 13.653217
v -17.619116 -0.432790 13.653218
v -10.493834 -0.480891 13.762563
v -17.619116 -0.480891 13.762564
v -10.493834 -0.510511 13.881210
v -17.619116 -0.510511 13.881210
v -10.493834 -0.520513 14.004599
v -17.619116 -0.520513 14.004599
v -10.493834 -0.510511 14.127987
v -17.619116 -0.510511 14.127987
v -10.493834 -0.480891 14.246634
v -17.619116 -0.480891 14.246634
v -10.493834 -0.432791 14.355979
v -17.619116 -0.432790 14.355980
v -10.493834 -0.368058 14.451821
v -17.619116 -0.368058 14.451821
v -10.493834 -0.289182 14.530477
v -17.619116 -0.289181 14.530478
v -10.493834 -0.199192 14.588923
v -17.619116 -0.199192 14.588923
v -10.493834 -0.101547 14.624914
v -17.619116 -0.101547 14.624915
v -10.493834 -0.000000 14.637068
v -17.619116 0.000000 14.637068
v -10.493834 0.101547 14.624914
v -17.619116 0.101547 14.624915
v -10.493834 0.199192 14.588923
v -17.619116 0.199192 14.588923
v -10.493834 0.289181 14.530478
v -17.619116 0.289181 14.530478
v -10.493834 0.368058 14.451821
v -17.619116 0.368058 14.451822
v -10.493834 0.432790 14.355979
v -17.619116 0.432791 14.355980
v -10.493834 0.480891 14.246634
v -17.619116 0.480891 14.246634
v -10.493834 0.510511 14.127987
v -17.619116 0.510511 14.127987
vt 0.950607 0.919913
vt 0.952718 0.583233
vt 0.924489 0.583135
vt 0.922378 0.919815
vt 0.896260 0.583037
vt 0.894149 0.919717
vt 0.868031 0.582938
vt 0.865920 0.919619
vt 0.839802 0.582840
vt 0.837691 0.919520
vt 0.811573 0.582742
vt 0.809463 0.919422
vt 0.783344 0.582643
vt 0.781234 0.919324
vt 0.755116 0.582545
vt 0.753005 0.919225
vt 0.726887 0.582447
vt 0.724776 0.919127
vt 0.698658 0.582348
vt 0.696547 0.919028
vt 0.670429 0.582250
vt 0.668318 0.918930
vt 0.642200 0.582152
vt 0.640089 0.918832
vt 0.613971 0.582053
vt 0.611860 0.918733
vt 0.585742 0.581955
vt 0.583631 0.918635
vt 0.557513 0.581857
vt 0.555402 0.918537
vt 0.529284 0.581758
vt 0.527174 0.918438
vt 0.501055 0.581660
vt 0.498945 0.918340
vt 0.472826 0.581562
vt 0.470716 0.918242
vt 0.444598 0.581463
vt 0.442487 0.918143
vt 0.416369 0.581365
vt 0.414258 0.918045
vt 0.388140 0.581267
vt 0.386029 0.917947
vt 0.359911 0.581168
vt 0.357800 0.917848
vt 0.331682 0.581070
vt 0.329571 0.917750
vt 0.303453 0.580971
vt 0.301342 0.917652
vt 0.275224 0.580873
vt 0.273113 0.917553
vt 0.246995 0.580775
vt 0.244884 0.917455
vt 0.218766 0.580676
vt 0.216656 0.917357
vt 0.190537 0.580578
vt 0.188427 0.917258
vt 0.162309 0.580480
vt 0.160198 0.917160
vt 0.134080 0.580381
vt 0.131969 0.917062
vt 0.105851 0.580283
vt 0.105850 0.276699
vt 0.389228 0.159320
vt 0.188850 0.076321
vt 0.103740 0.916963
vt 0.077622 0.580185
vt 0.075511 0.916865
vt 0.049393 0.580087
vt 0.884700 0.255652
vt 0.654672 0.209897
vt 0.792564 0.117760
vt 0.306229 0.359699
vt 0.188850 0.359699
vt 0.277459 0.368426
vt 0.247539 0.371373
vt 0.217620 0.368426
vt 0.139095 0.326454
vt 0.162335 0.345527
vt 0.120022 0.303214
vt 0.094176 0.218010
vt 0.097123 0.247930
vt 0.105850 0.159320
vt 0.097123 0.188090
vt 0.139095 0.109566
vt 0.120022 0.132806
vt 0.162335 0.090493
vt 0.247539 0.064647
vt 0.217620 0.067594
vt 0.306229 0.076321
vt 0.277459 0.067594
vt 0.355983 0.109566
vt 0.332743 0.090493
vt 0.375056 0.132806
vt 0.400902 0.218010
vt 0.397955 0.188090
vt 0.389228 0.276699
vt 0.397955 0.247929
vt 0.355983 0.326454
vt 0.375056 0.303214
vt 0.332743 0.345527
vt 0.047282 0.916767
vt 0.746809 0.347789
vt 0.792564 0.347789
vt 0.769686 0.350042
vt 0.834837 0.330279
vt 0.814563 0.341115
vt 0.867191 0.297925
vt 0.852607 0.315695
vt 0.878027 0.277651
vt 0.884700 0.209897
vt 0.886954 0.232775
vt 0.867191 0.167624
vt 0.878027 0.187898
vt 0.834837 0.135270
vt 0.852607 0.149854
vt 0.814563 0.124434
vt 0.746809 0.117760
vt 0.769686 0.115507
vt 0.704536 0.135270
vt 0.724810 0.124434
vt 0.672182 0.167624
vt 0.686766 0.149854
vt 0.661345 0.187898
vt 0.654672 0.255652
vt 0.652419 0.232775
vt 0.661345 0.277651
vt 0.672182 0.297925
vt 0.704536 0.330279
vt 0.686766 0.315695
vt 0.724810 0.341115
vn 0.0000 0.9967 -0.0808
vn 0.0000 0.9702 -0.2422
vn 0.0000 0.9154 -0.4027
vn -0.0000 0.8287 -0.5597
vn 0.0000 0.7061 -0.7081
vn 0.0000 0.5447 -0.8386
vn 0.0000 0.3459 -0.9383
vn 0.0000 0.1188 -0.9929
vn 0.0000 -0.1188 -0.9929
vn 0.0000 -0.3459 -0.9383
vn 0.0000 -0.5447 -0.8386
vn 0.0000 -0.7061 -0.7081
vn -0.0000 -0.8287 -0.5597
vn -0.0000 -0.9154 -0.4027
vn -0.0000 -0.9702 -0.2422
vn -0.0000 -0.9967 -0.0808
vn -0.0000 -0.9967 0.0808
vn 0.0000 -0.9702 0.2422
vn 0.0000 -0.9154 0.4027
vn 0.0000 -0.8287 0.5597
vn 0.0000 -0.7061 0.7081
vn 0.0000 -0.5447 0.8386
vn 0.0000 -0.3458 0.9383
vn -0.0000 -0.1188 0.9929
vn -0.0000 0.1188 0.9929
vn 0.0000 0.3458 0.9383
vn -0.0000 0.5447 0.8386
vn 0.0000 0.7061 0.7081
vn 0.0000 0.8287 0.5597
vn 0.0000 0.9154 0.4027
vn -1.0000 -0.0000 0.0000
vn 0.0000 0.9702 0.2422
vn 0.0000 0.9967 0.0808
vn 1.0000 0.0000 0.0000
vn -0.0000 0.3458 -0.9383
vn -0.0000 -0.3458 -0.9383
vn 0.0000 -0.3459 0.9383
vn -0.0000 0.3459 0.9383
vn -1.0000 0.0001 0.0000
vn -1.0000 -0.0001 0.0000
vn -1.0000 0.0002 0.0000
vn -1.0000 -0.0002 0.0000
vn 1.0000 0.0001 0.0000
vn 1.0000 -0.0001 0.0000
usemtl Material
s off
f 2/1/1 1/2/1 3/3/1
f 4/4/2 3/3/2 5/5/2
f 6/6/3 5/5/3 7/7/3
f 8/8/4 7/7/4 9/9/4
f 10/10/5 9/9/5 11/11/5
f 12/12/6 11/11/6 13/13/6
f 14/14/7 13/13/7 15/15/7
f 16/16/8 15/15/8 17/17/8
f 18/18/9 17/17/9 19/19/9
f 20/20/10 19/19/10 21/21/10
f 22/22/11 21/21/11 23/23/11
f 24/24/12 23/23/12 25/25/12
f 26/26/13 25/25/13 27/27/13
f 28/28/14 27/27/14 29/29/14
f 30/30/15 29/29/15 31/31/15
f 32/32/16 31/31/16 33/33/16
f 34/34/17 33/33/17 35/35/17
f 36/36/18 35/35/18 37/37/18
f 38/38/19 37/37/19 39/39/19
f 40/40/20 39/39/20 41/41/20
f 42/42/21 41/41/21 43/43/21
f 44/44/22 43/43/22 45/45/22
f 46/46/23 45/45/23 47/47/23
f 48/48/24 47/47/24 49/49/24
f 50/50/25 49/49/25 51/51/25
f 52/52/26 51/51/26 53/53/26
f 54/54/27 53/53/27 55/55/27
f 56/56/28 55/55/28 57/57/28
f 58/58/29 57/57/29 59/59/29
f 60/60/30 59/59/30 61/61/30
f 54/62/31 22/63/31 38/64/31
f 62/65/32 61/61/32 63/66/32
f 64/67/33 63/66/33 1/68/33
f 15/69/34 47/70/34 31/71/34
f 2/1/1 3/3/1 4/4/1
f 4/4/2 5/5/2 6/6/2
f 6/6/3 7/7/3 8/8/3
f 8/8/4 9/9/4 10/10/4
f 10/10/5 11/11/5 12/12/5
f 12/12/6 13/13/6 14/14/6
f 14/14/35 15/15/35 16/16/35
f 16/16/8 17/17/8 18/18/8
f 18/18/9 19/19/9 20/20/9
f 20/20/36 21/21/36 22/22/36
f 22/22/11 23/23/11 24/24/11
f 24/24/12 25/25/12 26/26/12
f 26/26/13 27/27/13 28/28/13
f 28/28/14 29/29/14 30/30/14
f 30/30/15 31/31/15 32/32/15
f 32/32/16 33/33/16 34/34/16
f 34/34/17 35/35/17 36/36/17
f 36/36/18 37/37/18 38/38/18
f 38/38/19 39/39/19 40/40/19
f 40/40/20 41/41/20 42/42/20
f 42/42/21 43/43/21 44/44/21
f 44/44/22 45/45/22 46/46/22
f 46/46/37 47/47/37 48/48/37
f 48/48/24 49/49/24 50/50/24
f 50/50/25 51/51/25 52/52/25
f 52/52/38 53/53/38 54/54/38
f 54/54/27 55/55/27 56/56/27
f 56/56/28 57/57/28 58/58/28
f 58/58/29 59/59/29 60/60/29
f 60/60/30 61/61/30 62/65/30
f 6/72/39 62/73/39 4/74/39
f 4/74/40 62/73/40 2/75/40
f 2/75/41 62/73/41 64/76/41
f 62/73/40 58/77/40 60/78/40
f 58/77/31 62/73/31 56/79/31
f 56/79/31 62/73/31 54/62/31
f 54/62/31 50/80/31 52/81/31
f 50/80/31 46/82/31 48/83/31
f 46/82/39 42/84/39 44/85/39
f 42/84/31 38/64/31 40/86/31
f 38/64/42 34/87/42 36/88/42
f 34/87/41 30/89/41 32/90/41
f 30/89/39 26/91/39 28/92/39
f 26/91/39 22/63/39 24/93/39
f 22/63/31 18/94/31 20/95/31
f 18/94/31 14/96/31 16/97/31
f 14/96/40 10/98/40 12/99/40
f 10/98/40 6/72/40 8/100/40
f 54/62/31 38/64/31 50/80/31
f 50/80/31 38/64/31 46/82/31
f 46/82/31 38/64/31 42/84/31
f 38/64/31 30/89/31 34/87/31
f 30/89/31 38/64/31 26/91/31
f 26/91/31 38/64/31 22/63/31
f 22/63/31 6/72/31 18/94/31
f 18/94/31 6/72/31 14/96/31
f 14/96/31 6/72/31 10/98/31
f 6/72/31 54/62/31 62/73/31
f 6/72/31 22/63/31 54/62/31
f 62/65/32 63/66/32 64/67/32
f 64/67/33 1/68/33 2/101/33
f 63/102/34 3/103/34 1/104/34
f 3/103/43 7/105/43 5/106/43
f 7/105/34 11/107/34 9/108/34
f 11/107/34 15/69/34 13/109/34
f 15/69/34 19/110/34 17/111/34
f 19/110/34 23/112/34 21/113/34
f 23/112/34 27/114/34 25/115/34
f 27/114/44 31/71/44 29/116/44
f 31/71/34 35/117/34 33/118/34
f 35/117/44 39/119/44 37/120/44
f 39/119/34 43/121/34 41/122/34
f 43/121/34 47/70/34 45/123/34
f 47/70/34 51/124/34 49/125/34
f 51/124/34 47/70/34 53/126/34
f 53/126/34 47/70/34 55/127/34
f 55/127/34 59/128/34 57/129/34
f 59/128/34 55/127/34 61/130/34
f 61/130/34 55/127/34 63/102/34
f 63/102/34 15/69/34 3/103/34
f 3/103/34 15/69/34 7/105/34
f 7/105/34 15/69/34 11/107/34
f 15/69/34 23/112/34 19/110/34
f 23/112/34 15/69/34 27/114/34
f 27/114/34 15/69/34 31/71/34
f 31/71/34 47/70/34 35/117/34
f 35/117/34 47/70/34 39/119/34
f 39/119/34 47/70/34 43/121/34
f 47/70/34 63/102/34 55/127/34
f 63/102/34 47/70/34 15/69/34
