# Blender v3.0.0 OBJ File: 'Rock.blend'
# www.blender.org
mtllib Rock.mtl
o Icosphere
v 0.186464 -2.592254 -0.037692
v 2.803751 -1.100382 1.953324
v -0.239717 -1.305878 2.583274
v -3.790897 -1.240060 -0.362583
v -1.734421 -1.416082 -2.499173
v 1.743916 -0.839526 -1.214715
v 0.376628 0.786651 2.207511
v -2.639523 1.180864 1.368961
v -2.276973 1.513605 -1.273468
v 0.944080 1.126795 -2.337778
v 3.446942 1.097441 0.588450
v 0.100069 2.565017 0.032967
v -0.584362 -2.264800 1.337257
v 1.644532 -2.247408 0.907223
v 0.685393 -1.527313 1.941397
v 3.046726 -1.788100 0.320813
v 1.541334 -2.511153 -0.430451
v -1.278395 -2.173672 0.124317
v -3.044033 -1.272810 1.228091
v -1.183031 -2.192786 -1.025820
v -1.944631 -1.315550 -1.531938
v -0.065871 -1.839210 -2.276389
v 3.165709 0.184191 0.768661
v 3.652352 -0.213044 -0.761616
v 0.992845 0.090494 3.141598
v 1.961898 0.072977 2.211633
v -3.258960 0.031047 0.841321
v -2.898438 0.304813 2.339920
v -2.183050 0.163150 -2.100391
v -2.723810 -0.077430 -0.678621
v 2.032429 0.003314 -2.118114
v -0.561656 -0.063630 -2.347923
v 2.934949 0.963521 1.265189
v -0.127407 1.586545 1.852194
v -3.043338 1.213982 0.111389
v -0.742159 1.490589 -2.329670
v 2.473117 1.313821 -1.248509
v -0.210582 2.108962 1.402513
v 1.753865 2.078678 0.243276
v -1.477229 2.240034 0.837609
v -0.622826 2.560076 -1.175185
v 0.576163 2.239881 -1.304357
vt 0.037853 0.243546
vt 0.098191 0.120001
vt 0.151047 0.296945
vt 0.202134 0.004038
vt 0.062832 0.000000
vt 0.082609 0.351339
vt 0.004787 0.345199
vt 0.078144 0.599618
vt 0.196398 0.532605
vt 0.063728 0.687335
vt 0.941669 0.402010
vt 0.882501 0.363441
vt 0.941669 0.256741
vt 0.269529 0.249247
vt 0.207431 0.180806
vt 0.350862 0.122914
vt 0.811709 0.715346
vt 0.709770 0.667560
vt 0.793058 0.595098
vt 0.948495 0.873517
vt 0.889826 0.819386
vt 0.992694 0.743009
vt 0.171314 0.786367
vt 0.252485 0.617542
vt 0.250901 0.846509
vt 0.826443 0.123782
vt 0.900855 0.000000
vt 0.910877 0.123782
vt 0.350862 0.428349
vt 0.888148 0.682328
vt 0.714038 0.502434
vt 0.596736 0.514420
vt 0.663215 0.401011
vt 0.109634 0.939872
vt 0.503542 0.682483
vt 0.647751 0.528816
vt 0.589460 0.782307
vt 0.450364 0.934463
vt 0.544402 0.749909
vt 0.574343 0.893226
vt 0.478722 0.487688
vt 0.403731 0.504343
vt 0.459454 0.353394
vt 0.636940 0.279798
vt 0.573783 0.404720
vt 0.514059 0.268774
vt 0.551276 0.000000
vt 0.609640 0.129334
vt 0.472882 0.132699
vt 0.415229 0.261220
vt 0.709696 0.896663
vt 0.684761 0.810457
vt 0.350862 0.357309
vt 0.491249 1.000000
vt 0.709696 0.672249
vt 0.702974 0.514420
vt 0.697021 0.034327
vt 0.714038 0.197532
vt 0.894446 0.556606
vt 1.000000 0.617774
vt 0.812929 0.514420
vt 0.350863 0.902808
vt 0.447726 0.593338
vt 0.846355 0.247656
vt 0.826443 0.179129
vt 0.846355 0.123782
vt 0.522246 0.549084
vt 0.826443 0.000000
vt 0.756982 0.125727
vt 0.745051 0.056283
vt 0.714039 0.110651
vt 0.342032 0.680507
vt 0.342032 0.837542
vt 0.334049 0.535262
vt 0.814186 0.256741
vt 0.882501 0.394358
vt 0.805099 0.394358
vt 0.709696 0.521563
vt 0.213118 0.472503
vt 0.277773 0.047165
vt 0.754840 0.256741
vt 0.826443 0.227831
vt 0.000000 0.821647
vt 0.819869 0.873517
vt 0.746060 0.819634
vt 0.805099 0.256741
vt 0.805099 0.441188
vt 0.714039 0.387552
vt 0.117894 0.532605
vt 0.000000 0.134696
vn -0.0583 -0.9981 -0.0183
vn 0.2326 -0.8878 0.3972
vn -0.0872 -0.9414 0.3258
vn 0.3030 -0.7910 0.5316
vn 0.4096 -0.8592 0.3065
vn -0.3207 -0.9431 0.0877
vn -0.1506 -0.9547 -0.2566
vn -0.0415 -0.9475 -0.3169
vn 0.9769 -0.1017 0.1882
vn 0.9598 -0.1160 0.2557
vn 0.8970 -0.1589 0.4125
vn 0.2848 -0.7021 0.6527
vn 0.2497 -0.7180 0.6497
vn 0.5050 -0.5741 0.6445
vn -0.9051 -0.0233 0.4245
vn -0.9354 -0.0504 0.3500
vn -0.9431 -0.0584 0.3273
vn -0.9567 -0.2252 -0.1845
vn -0.9292 -0.2533 -0.2691
vn -0.9387 -0.1049 -0.3285
vn 0.5297 -0.5916 -0.6078
vn 0.6269 -0.5037 -0.5944
vn 0.4868 -0.7108 -0.5077
vn 0.7000 0.3675 0.6123
vn -0.2825 -0.4253 0.8599
vn -0.2082 -0.1991 0.9576
vn -0.3360 -0.4279 0.8390
vn -0.7416 0.5981 -0.3038
vn 0.0133 0.0997 -0.9949
vn -0.1338 0.1173 -0.9840
vn -0.0027 0.0203 -0.9998
vn 0.3717 -0.6610 -0.6518
vn 0.3059 0.6644 0.6819
vn 0.3254 0.7387 0.5902
vn 0.1837 0.8465 0.4997
vn -0.2415 0.7180 0.6528
vn -0.1982 0.6240 0.7558
vn -0.2486 0.6295 0.7362
vn -0.5268 0.8430 -0.1091
vn -0.5621 0.8265 0.0305
vn -0.1607 0.9849 -0.0641
vn 0.3390 0.6147 -0.7122
vn 0.1349 0.7093 -0.6918
vn 0.2749 0.8547 -0.4405
vn 0.6824 0.6743 -0.2823
vn 0.5919 0.6182 -0.5172
vn 0.3916 0.9096 0.1388
vn 0.1155 0.9870 0.1114
vn 0.1195 0.7222 -0.6813
vn -0.4524 0.5883 -0.6703
vn -0.4711 0.5413 -0.6964
vn -0.4022 0.6920 -0.5995
vn -0.3738 0.9225 0.0962
vn -0.6028 0.7687 0.2138
vn -0.2723 0.6025 0.7503
vn 0.5300 0.6001 0.5991
vn 0.3786 0.8105 0.4469
vn 0.7465 0.4092 -0.5248
vn 0.5752 0.3091 -0.7573
vn -0.0672 0.0039 -0.9977
vn 0.0586 -0.0656 -0.9961
vn -0.5093 0.4234 -0.7493
vn -0.9219 -0.0303 -0.3863
vn -0.9149 0.0202 -0.4031
vn -0.9093 0.1048 -0.4027
vn -0.9435 -0.0316 -0.3299
vn -0.8974 0.3824 0.2202
vn -0.8976 0.3856 0.2135
vn -0.8911 0.3446 0.2952
vn -0.2000 0.6952 0.6904
vn -0.1319 0.5886 0.7976
vn 0.8656 0.4362 -0.2460
vn 0.2992 0.6686 0.6808
vn 0.7630 -0.1712 0.6233
vn 0.7801 -0.1551 0.6061
vn 0.8657 -0.1740 0.4693
vn 0.0897 -0.0646 -0.9939
vn 0.1094 -0.0095 -0.9940
vn -0.5115 0.2456 -0.8234
vn -0.8971 0.4194 0.1392
vn -0.9650 -0.0856 0.2478
vn -0.3620 -0.5733 0.7350
vn 0.3791 0.8442 0.3791
vn 0.5699 -0.5567 0.6044
vn 0.0332 -0.1921 0.9808
vn 0.9285 -0.1576 0.3362
vn 0.4632 -0.5225 -0.7158
vn 0.5846 -0.4016 -0.7049
vn -0.1001 -0.9305 -0.3525
vn -0.1729 -0.8965 -0.4079
vn -0.7367 -0.6736 -0.0589
vn -0.7301 -0.6789 -0.0780
vn -0.7268 -0.6813 -0.0871
vn -0.7397 -0.6711 -0.0502
vn -0.2634 -0.8957 -0.3581
vn -0.3718 -0.9157 0.1526
vn -0.3704 -0.9159 0.1550
vn -0.3138 -0.7085 0.6321
vn 0.2199 -0.9602 0.1723
usemtl Material.001
s 1
f 1/1/1 14/2/2 13/3/3
f 2/4/4 14/2/2 16/5/5
f 1/1/1 13/3/3 18/6/6
f 1/1/1 18/6/6 20/7/7
f 1/8/1 20/9/7 17/10/8
f 2/11/9 16/12/10 23/13/11
f 3/14/12 15/15/13 25/16/14
f 4/17/15 19/18/16 27/19/17
f 5/20/18 21/21/19 29/22/20
f 6/23/21 22/24/22 31/25/23
f 2/26/24 23/27/24 26/28/24
f 3/14/25 25/16/26 28/29/27
f 4/17/28 27/19/28 30/30/28
f 5/31/29 29/32/30 32/33/31
f 6/23/21 31/25/23 24/34/32
f 7/35/33 33/36/34 38/37/35
f 8/38/36 34/39/37 40/40/38
f 9/41/39 35/42/40 41/43/41
f 10/44/42 36/45/43 42/46/44
f 11/47/45 37/48/46 39/49/47
f 39/49/47 42/46/44 12/50/48
f 39/49/47 37/48/46 42/46/44
f 37/48/46 10/44/42 42/46/44
f 42/46/44 41/43/41 12/50/48
f 42/46/44 36/45/43 41/43/49
f 36/45/50 9/41/51 41/43/52
f 41/51/41 40/40/53 12/52/48
f 41/43/41 35/42/40 40/53/53
f 35/54/40 8/38/54 40/40/53
f 40/40/53 38/37/35 12/52/48
f 40/40/38 34/39/37 38/37/55
f 34/39/56 7/35/33 38/37/35
f 38/37/35 39/55/47 12/52/48
f 38/37/35 33/36/34 39/55/47
f 33/36/34 11/56/57 39/55/47
f 24/57/58 37/48/46 11/47/45
f 24/57/58 31/58/59 37/48/46
f 31/58/59 10/44/42 37/48/46
f 32/33/31 36/45/60 10/44/61
f 32/33/31 29/32/30 36/45/60
f 29/32/62 9/41/51 36/45/50
f 30/30/63 35/59/64 9/60/65
f 30/30/63 27/19/66 35/59/64
f 27/19/67 8/61/68 35/59/69
f 28/62/70 34/39/37 8/38/36
f 28/62/70 25/63/71 34/39/37
f 25/64/72 7/65/72 34/66/72
f 26/67/73 33/36/34 7/35/33
f 26/68/74 23/69/11 33/70/75
f 23/69/11 11/71/76 33/70/75
f 31/25/77 32/72/31 10/73/61
f 31/25/77 22/24/78 32/72/31
f 22/24/78 5/74/29 32/72/31
f 29/22/20 30/30/63 9/60/65
f 29/22/20 21/21/19 30/30/63
f 21/75/79 4/76/79 30/77/79
f 27/19/67 28/78/80 8/61/68
f 27/19/17 19/18/16 28/78/81
f 19/79/82 3/14/25 28/29/27
f 25/63/83 26/67/73 7/35/33
f 25/16/14 15/15/13 26/80/84
f 15/15/85 2/4/85 26/80/85
f 23/69/11 24/81/86 11/71/76
f 23/69/11 16/82/10 24/81/86
f 16/83/87 6/23/21 24/34/32
f 17/10/88 22/24/22 6/23/21
f 17/10/8 20/9/7 22/24/89
f 20/9/7 5/74/90 22/24/89
f 20/84/91 21/21/92 5/20/93
f 20/84/91 18/85/94 21/21/92
f 18/86/95 4/87/95 21/88/95
f 18/6/6 19/79/96 4/89/97
f 18/6/6 13/3/3 19/79/96
f 13/3/98 3/14/25 19/79/82
f 16/83/87 17/10/88 6/23/21
f 16/5/5 14/2/2 17/90/99
f 14/2/2 1/1/1 17/90/99
f 13/3/3 15/15/13 3/14/12
f 13/3/3 14/2/2 15/15/13
f 14/2/2 2/4/4 15/15/13
